<?xml version="1.0" encoding="utf-8"?>
<svg xmlns="http://www.w3.org/2000/svg" viewBox="0 0 500 500" xmlns:bx="https://boxy-svg.com" width="500px" height="500px"><defs><bx:export><bx:file format="svg"/></bx:export></defs><path d="M 500 250 C 500 388.071 388.071 500 250 500 C 111.929 500 0 388.071 0 250 C 0 111.929 111.929 0 250 0 C 388.071 0 500 111.929 500 250 Z M 140.083 257.42 C 132.62 263.988 131.894 275.361 138.461 282.824 L 205.618 359.139 C 209.296 363.319 214.701 365.561 220.257 365.213 C 225.813 364.864 230.896 361.965 234.023 357.359 L 357.958 174.814 C 363.542 166.589 361.401 155.395 353.177 149.811 C 344.952 144.227 333.758 146.368 328.174 154.592 L 217.292 317.911 L 165.487 259.042 C 158.919 251.579 147.546 250.853 140.083 257.42 Z" style="stroke: rgb(0, 0, 0); stroke-width: 0px; fill: rgb(228, 175, 10);"/></svg>