<?xml version="1.0" encoding="utf-8"?>
<svg viewBox="0 0 300 300" xmlns="http://www.w3.org/2000/svg" xmlns:xlink="http://www.w3.org/1999/xlink" xmlns:bx="https://boxy-svg.com">
  <defs>
    <pattern id="pattern-1-0" patternTransform="matrix(0.707107, -0.707109, 0.707105, 0.707107, 79.289613, 149.999663)" xlink:href="#pattern-4"/>
    <pattern id="pattern-4" viewBox="0 0 50 200" patternUnits="userSpaceOnUse" preserveAspectRatio="none" width="100" height="100">
      <rect x="325" y="100" width="50" height="100" style="stroke: rgb(0, 0, 0); stroke-width: 0px; fill: rgb(175, 175, 175);" transform="matrix(1, 0, 0, 0.9999999999999999, -325, -100)"/>
      <rect x="325" y="200" width="50" height="100" style="fill: rgb(216, 216, 216); stroke: rgb(0, 0, 0); stroke-width: 0px;" transform="matrix(1, 0, 0, 0.9999999999999999, -325, -100)"/>
    </pattern>
    <pattern id="pattern-1-1" patternTransform="matrix(0.707107, -0.707109, 0.707105, 0.707107, 161.141398, 268.184624)" xlink:href="#pattern-4"/>
  </defs>
  <path d="M 300 280 C 300 291.046 291.046 300 280 300 L 20 300 C 8.954 300 0 291.046 0 280 L 0 150 L 300 150 L 300 280 Z" style="stroke: rgb(0, 0, 0); stroke-width: 0px; fill: url('#pattern-1-0');" transform="matrix(1, 0, 0, 1, 0, -5.684341886080802e-14)"/>
  <path style="stroke: rgb(0, 0, 0); stroke-width: 0px; fill: rgb(73, 157, 202);" d="M 20 0 L 280 0 C 291.046 0 300 8.954 300 20 L 300 150 L 0 150 L 0 20 C 0 8.954 8.954 0 20 0 Z M 250 275 L 50 275 L 50 200 L 250 200 L 250 275 Z" transform="matrix(1, 0, 0, 1, 0, -5.684341886080802e-14)"/>
  <path style="stroke: rgb(0, 0, 0); stroke-width: 0px; fill: rgb(29, 108, 151);" d="M 20 10 H 280 A 10 10 0 0 1 290 20 V 150 H 10 V 20 A 10 10 0 0 1 20 10 Z" transform="matrix(1, 0, 0, 1, 0, -5.684341886080802e-14)" bx:shape="rect 10 10 280 140 10 10 0 0 1@5f36897d"/>
  <g transform="matrix(1, 0, 0, 1, -99.999803755014, -100.00043699477368)">
    <title>lock</title>
    <rect style="stroke: rgb(0, 0, 0); stroke-width: 0px; fill: url('#pattern-1-1');" x="200" y="225" width="100" height="100" rx="30" ry="30"/>
    <path d="M 267.33 291.138 C 272.669 301.712 269.999 307 259.324 307 L 240.676 307 C 230 307 227.33 301.712 232.669 291.138 L 240.667 275.291 C 235.414 272.154 231.901 266.447 231.901 259.928 C 231.901 250.026 240.004 242 250 242 C 259.995 242 268.098 250.026 268.098 259.928 C 268.098 266.447 264.585 272.154 259.332 275.291 L 267.33 291.138 Z" style="stroke: rgb(0, 0, 0); stroke-width: 0px; fill: rgb(93, 93, 93);"/>
  </g>
</svg>