<?xml version="1.0" encoding="utf-8"?>
<svg xmlns="http://www.w3.org/2000/svg" viewBox="0 0 1000 1000" xmlns:bx="https://boxy-svg.com" width="1000px" height="1000px"><defs><linearGradient gradientUnits="userSpaceOnUse" x1="249.667" y1="104.153" x2="249.667" y2="396.342" id="gradient-1" gradientTransform="matrix(1.99974, -0.032296, 0.03524, 2.182074, -3.605224, -10.900437)"><stop offset="0" style="stop-color: rgb(255, 96, 80);"/><stop offset="1" style="stop-color: rgb(255, 219, 111);"/></linearGradient><bx:export><bx:file format="png"/><bx:file format="svg"/><bx:file format="png" href="#object-0" path="Untitled 2.png"/></bx:export></defs><rect width="1000" height="1000" style="stroke: rgb(0, 0, 0); fill: rgb(24, 24, 24);" id="object-0"/><path style="stroke-width: 0px; stroke: rgb(255, 0, 0); fill: url(&quot;#gradient-1&quot;);" d="M 730.842 571.506 C 723.694 691.472 654.044 790.021 497.618 792.684 C 349.976 792.898 265.6 723.242 266.932 600 C 267.346 561.67 286.616 510.55 303.818 463.726 C 323.132 411.158 304.072 361.502 325.868 356.34 C 355.562 351.073 382.816 370.988 400 400 C 403.752 406.982 400 351.43 376.822 306.017 C 349.646 252.771 316.565 214.608 343.248 211.924 C 546.753 191.453 746.55 357.456 730.842 571.506 Z M 448.004 533.757 C 438.104 536.56 446.822 547.206 430.523 572.585 C 418.832 590.79 409.677 603.277 409.834 638.298 C 411.217 674.292 436.717 705.466 501.52 704.36 C 555.905 703.431 586.604 662.134 585.762 600 C 584.706 522.038 512.738 463.722 494.044 472.096 C 486.003 476.281 500 549.397 479.411 569.878 C 474.996 573.583 472.476 561.763 470.495 556.568 C 464.82 541.685 454.397 532.131 448.004 533.757 Z"/></svg>