<?xml version="1.0" encoding="utf-8"?>
<svg xmlns="http://www.w3.org/2000/svg" viewBox="0 0 700 700" xmlns:bx="https://boxy-svg.com" width="700px" height="700px"><defs><pattern id="pattern-0" viewBox="0 0 100 100" patternUnits="userSpaceOnUse" preserveAspectRatio="none" width="100" height="100" bx:pinned="true"/><linearGradient id="gradient-0" bx:pinned="true"/><bx:export><bx:file format="svg"/></bx:export></defs><rect x="325" width="50" height="200" style="stroke: rgb(0, 0, 0); stroke-width: 0px; fill: rgba(255, 255, 255, 0.08);" rx="25" ry="25"/><rect x="325" width="50" height="200" style="stroke: rgb(0, 0, 0); stroke-width: 0; fill: rgba(255, 255, 255, 0.54);" rx="25" ry="25" y="500"/><rect x="325" width="50" height="200" style="stroke: rgb(0, 0, 0); stroke-width: 0px; fill: rgba(255, 255, 255, 0.31);" rx="25" ry="25" transform="matrix(0, 1, -1, 0, 700, 0)"/><rect x="325" width="50" height="200" style="stroke: rgb(0, 0, 0); stroke-width: 0; fill: rgba(255, 255, 255, 0.77);" rx="25" ry="25" y="500" transform="matrix(0, 1, -1, 0, 700, 0)"/><rect x="325" width="50" height="200" style="stroke: rgb(0, 0, 0); stroke-width: 0px; fill: rgba(255, 255, 255, 0.15);" rx="25" ry="25" transform="matrix(0.866025, 0.5, -0.5, 0.866025, 221.891251, -128.108765)"/><rect x="325" width="50" height="200" style="stroke: rgb(0, 0, 0); stroke-width: 0; fill: rgba(255, 255, 255, 0.62);" rx="25" ry="25" y="500" transform="matrix(0.866025, 0.5, -0.5, 0.866025, 221.891251, -128.108765)"/><rect x="325" width="50" height="200" style="stroke: rgb(0, 0, 0); stroke-width: 0px; fill: rgba(255, 255, 255, 0.38);" rx="25" ry="25" transform="matrix(-0.5, 0.866025, -0.866025, -0.5, 828.108765, 221.891235)"/><rect x="325" width="50" height="200" style="stroke: rgb(0, 0, 0); stroke-width: 0; fill: rgba(255, 255, 255, 0.85);" rx="25" ry="25" y="500" transform="matrix(-0.5, 0.866025, -0.866025, -0.5, 828.108765, 221.891235)"/><rect x="325" width="50" height="200" style="stroke: rgb(0, 0, 0); stroke-width: 0px; fill: rgb(255, 255, 255);" rx="25" ry="25" transform="matrix(0.866025, -0.5, 0.5, 0.866025, -128.108765, 221.891251)"/><rect x="325" width="50" height="200" style="stroke: rgb(0, 0, 0); stroke-width: 0; fill: rgba(255, 255, 255, 0.46);" rx="25" ry="25" y="500" transform="matrix(0.866025, -0.5, 0.5, 0.866025, -128.108765, 221.891251)"/><rect x="325" width="50" height="200" style="stroke: rgb(0, 0, 0); stroke-width: 0px; fill: rgba(255, 255, 255, 0.23);" rx="25" ry="25" transform="matrix(0.5, 0.866025, -0.866025, 0.5, 478.108765, -128.108749)"/><rect x="325" width="50" height="200" style="stroke: rgb(0, 0, 0); stroke-width: 0; fill: rgba(255, 255, 255, 0.69);" rx="25" ry="25" y="500" transform="matrix(0.5, 0.866025, -0.866025, 0.5, 478.108765, -128.108749)"/></svg>