<?xml version="1.0" encoding="utf-8"?>
<svg xmlns="http://www.w3.org/2000/svg" viewBox="0 0 500 500" width="500px" height="500px"><path d="M 20 0 L 100 0 L 100 25 L 35 25 C 29.477 25 25 29.477 25 35 L 25 100 L 0 100 L 0 20 C 0 8.954 8.954 0 20 0 Z M 480 0 C 491.046 0 500 8.954 500 20 L 500 100 L 475 100 L 475 35 C 475 29.477 470.523 25 465 25 L 400 25 L 400 0 Z M 500 480 C 500 491.046 491.046 500 480 500 L 400 500 L 400 475 L 465 475 C 470.523 475 475 470.523 475 465 L 475 400 L 500 400 Z M 20 500 C 8.954 500 0 491.046 0 480 L 0 400 L 25 400 L 25 465 C 25 470.523 29.477 475 35 475 L 100 475 L 100 500 Z M 200 0 L 300 0 L 300 25 L 200 25 Z M 500 200 L 500 300 L 475 300 L 475 200 Z M 300 500 L 200 500 L 200 475 L 300 475 Z M 0 300 L 0 200 L 25 200 L 25 300 Z" style="fill: rgb(216, 216, 216); stroke: rgb(0, 0, 0); stroke-width: 0px;" id="object-0"/></svg>