<?xml version="1.0" encoding="utf-8"?>
<svg xmlns="http://www.w3.org/2000/svg" viewBox="0 0 500 500" xmlns:bx="https://boxy-svg.com" width="500px" height="500px"><defs><bx:export><bx:file format="svg"/></bx:export></defs><path d="M 500 480 C 500 491.046 491.046 500 480 500 L 400 500 L 400 474.996 L 425 474.996 C 452.614 474.996 475 452.609 475 424.999 L 475 399.999 L 500 399.999 Z M 100 500 L 20 500 C 8.954 500 0 491.046 0 480 L 0 399.999 L 25 399.999 L 25 425 C 25 452.507 47.213 474.826 74.68 474.996 L 100 474.996 Z M 500 199.999 L 500 300.001 L 475 300.001 L 475 199.999 Z M 300 500 L 200 500 L 200 474.996 L 300 474.996 Z M 0 199.999 L 25 199.999 L 25 300.001 L 0 300.001 Z M 425 25.001 L 400 25.001 L 400 0 L 480 0 C 491.046 0 500 8.95 500 20 L 500 100.001 L 475 100.001 L 475 75.001 C 475 47.391 452.614 25.001 425 25.001 Z M 20 0 L 100 0 L 100 25.001 L 74.68 25.001 C 47.213 25.173 25 47.493 25 75 L 25 100.001 L 0 100.001 L 0 20 C 0 8.95 8.954 0 20 0 Z M 200 0 L 300 0 L 300 25.001 L 200 25.001 Z" style="fill: rgb(216, 216, 216); stroke: rgb(0, 0, 0); stroke-width: 0;" id="object-0"/></svg>